<svg xmlns="http://www.w3.org/2000/svg" xmlns:xlink="http://www.w3.org/1999/xlink" zoomAndPan="magnify" preserveAspectRatio="xMidYMid meet" version="1.0" viewBox="5.38 139.92 368.62 52.5"><defs><g/></defs><g fill="#000000" fill-opacity="1"><g transform="translate(0.0436119, 192.179028)"><g><path d="M 25.898438 0.222656 L 36.539062 0.0742188 L 38.101562 -0.59375 L 38.921875 -2.15625 L 38.921875 -9.675781 L 38.101562 -11.164062 L 36.539062 -11.832031 L 34.828125 -11.683594 L 33.414062 -11.90625 L 29.617188 -11.980469 L 27.164062 -11.683594 L 25.675781 -11.832031 L 24.039062 -11.757812 L 22.625 -11.980469 L 20.984375 -11.832031 L 19.421875 -12.578125 L 18.828125 -13.917969 L 18.828125 -18.605469 L 19.496094 -20.167969 L 20.835938 -20.984375 L 23.070312 -21.058594 L 25.449219 -20.835938 L 28.277344 -20.984375 L 31.332031 -20.910156 L 32.820312 -21.058594 L 34.53125 -20.984375 L 36.019531 -21.582031 L 36.539062 -23.070312 L 36.761719 -29.765625 L 36.019531 -31.851562 L 34.308594 -32.820312 L 29.917969 -32.820312 L 28.351562 -32.667969 L 25.226562 -32.894531 L 20.910156 -32.746094 L 19.347656 -33.414062 L 18.753906 -35.722656 L 18.753906 -38.027344 L 19.421875 -39.441406 L 21.058594 -40.039062 L 22.472656 -39.960938 L 23.886719 -40.261719 L 34.53125 -40.113281 L 35.945312 -40.1875 L 37.507812 -41.078125 L 38.25 -42.417969 L 38.175781 -43.90625 L 38.25 -45.394531 L 38.101562 -49.859375 L 37.433594 -51.273438 L 35.945312 -51.871094 L 34.382812 -51.871094 L 33.042969 -52.167969 L 27.015625 -52.09375 L 25.375 -51.945312 L 23.886719 -52.09375 L 22.625 -52.019531 L 21.136719 -52.167969 L 15.03125 -52.019531 L 13.542969 -52.242188 L 12.128906 -51.945312 L 10.789062 -52.09375 L 9.300781 -51.945312 L 7.8125 -52.019531 L 6.25 -51.421875 L 5.433594 -49.859375 L 5.582031 -47.03125 L 5.359375 -43.980469 L 5.582031 -42.34375 L 5.433594 -35.050781 L 5.65625 -33.488281 L 5.507812 -32.074219 L 5.433594 -25.972656 L 5.65625 -24.632812 L 5.582031 -12.578125 L 5.433594 -11.164062 L 5.65625 -9.675781 L 5.433594 -4.539062 L 5.582031 -2.902344 L 6.175781 -0.894531 L 8.410156 0.0742188 L 13.765625 0.148438 L 15.40625 0 L 16.746094 0.0742188 L 19.796875 -0.148438 L 21.210938 0.148438 L 22.921875 0.222656 L 24.410156 0.0742188 Z M 25.898438 0.222656 "/></g></g></g><g fill="#000000" fill-opacity="1"><g transform="translate(42.683872, 192.179028)"><g><path d="M 5.433594 -2.082031 L 6.175781 -0.667969 L 8.484375 0.148438 L 16.667969 0.0742188 L 18.15625 -0.667969 L 19.125 -2.976562 L 19.050781 -5.285156 L 19.199219 -6.847656 L 18.976562 -10.046875 L 19.050781 -11.460938 L 18.976562 -12.875 L 19.125 -14.4375 L 19.796875 -16 L 22.027344 -16.746094 L 33.636719 -16.820312 L 35.050781 -17.488281 L 35.871094 -18.976562 L 35.796875 -20.613281 L 35.945312 -25.078125 L 35.722656 -26.492188 L 34.976562 -28.054688 L 32.746094 -28.800781 L 21.433594 -28.800781 L 19.722656 -29.394531 L 18.902344 -30.734375 L 18.902344 -35.125 L 19.125 -36.6875 L 19.050781 -37.953125 L 19.796875 -39.441406 L 21.953125 -40.1875 L 24.113281 -40.113281 L 26.269531 -40.261719 L 29.917969 -40.039062 L 31.40625 -40.1875 L 34.457031 -40.039062 L 35.945312 -40.261719 L 37.359375 -40.929688 L 37.878906 -42.417969 L 37.878906 -43.832031 L 38.027344 -45.320312 L 37.878906 -46.734375 L 38.027344 -48.296875 L 37.878906 -49.859375 L 37.136719 -51.273438 L 35.796875 -51.945312 L 34.007812 -52.167969 L 31.332031 -51.945312 L 29.765625 -52.019531 L 28.203125 -51.945312 L 26.789062 -52.09375 L 25.375 -51.945312 L 7.589844 -51.945312 L 6.175781 -51.199219 L 5.359375 -49.785156 L 5.65625 -40.855469 L 5.507812 -39.441406 L 5.433594 -28.875 L 5.65625 -27.535156 L 5.507812 -26.121094 L 5.507812 -24.632812 L 5.359375 -22.996094 L 5.65625 -20.6875 L 5.433594 -5.285156 L 5.582031 -3.570312 Z M 5.433594 -2.082031 "/></g></g></g><g fill="#000000" fill-opacity="1"><g transform="translate(83.240498, 192.179028)"><g><path d="M 5.730469 -2.382812 L 6.25 -0.746094 L 7.738281 0 L 9.152344 0.0742188 L 12.203125 -0.148438 L 13.765625 0 L 16 0 L 18.308594 -0.746094 L 18.828125 -2.15625 L 18.976562 -3.722656 L 18.679688 -5.285156 L 18.902344 -8.484375 L 18.753906 -13.097656 L 19.421875 -14.585938 L 20.910156 -15.332031 L 22.25 -15.332031 L 23.589844 -15.40625 L 25.449219 -14.808594 L 26.640625 -13.542969 L 28.578125 -10.941406 L 29.097656 -9.527344 L 31.179688 -5.804688 L 32.148438 -4.390625 L 32.820312 -3.125 L 33.710938 -1.933594 L 35.199219 -0.59375 L 37.058594 -0.148438 L 39.738281 0 L 41.375 -0.148438 L 42.863281 0 L 45.84375 0 L 47.480469 -0.148438 L 49.042969 -0.519531 L 49.339844 -2.082031 L 48.371094 -3.945312 L 45.992188 -7.589844 L 45.320312 -8.855469 L 44.429688 -10.195312 L 43.683594 -11.535156 L 42.714844 -12.726562 L 40.484375 -16.59375 L 40.261719 -18.382812 L 41.078125 -19.945312 L 43.164062 -21.953125 L 44.054688 -23.21875 L 44.578125 -24.632812 L 45.394531 -25.972656 L 45.917969 -27.238281 L 46.734375 -30.066406 L 46.808594 -35.945312 L 46.4375 -37.359375 L 46.214844 -38.773438 L 45.84375 -40.261719 L 43.832031 -44.351562 L 42.789062 -45.46875 L 42.121094 -46.585938 L 38.398438 -49.414062 L 35.796875 -50.753906 L 29.617188 -52.019531 L 27.757812 -52.167969 L 25.601562 -52.09375 L 23.960938 -52.167969 L 22.472656 -52.019531 L 20.835938 -52.167969 L 19.570312 -52.019531 L 15.105469 -52.167969 L 13.691406 -51.945312 L 10.640625 -52.242188 L 9.226562 -52.019531 L 7.589844 -52.09375 L 6.175781 -51.421875 L 5.582031 -49.859375 L 5.359375 -29.023438 L 5.582031 -26.863281 L 5.582031 -23.144531 L 5.433594 -21.582031 L 5.359375 -18.753906 L 5.582031 -17.117188 L 5.359375 -14.066406 L 5.65625 -9.75 L 5.507812 -8.1875 Z M 20.910156 -27.386719 L 19.648438 -28.054688 L 18.902344 -29.617188 L 18.679688 -37.953125 L 19.570312 -39.441406 L 21.058594 -40.1875 L 22.25 -40.261719 L 26.34375 -40.1875 L 29.765625 -39.738281 L 32.074219 -38.324219 L 32.820312 -37.210938 L 33.339844 -36.019531 L 33.488281 -33.859375 L 33.265625 -31.851562 L 32.667969 -30.363281 L 31.851562 -29.097656 L 30.957031 -28.203125 L 29.84375 -27.683594 L 24.039062 -27.164062 L 22.546875 -27.386719 Z M 20.910156 -27.386719 "/></g></g></g><g fill="#000000" fill-opacity="1"><g transform="translate(134.810662, 192.179028)"><g><path d="M 5.359375 -2.15625 L 6.324219 -0.746094 L 7.738281 0.0742188 L 24.558594 -0.0742188 L 25.898438 0.148438 L 30.4375 -0.0742188 L 34.976562 0.222656 L 36.390625 0.0742188 L 37.953125 -0.667969 L 38.625 -2.082031 L 38.773438 -3.496094 L 38.699219 -8.113281 L 38.847656 -9.527344 L 37.878906 -11.015625 L 35.648438 -11.757812 L 25.824219 -11.90625 L 24.410156 -11.683594 L 22.773438 -11.832031 L 21.136719 -11.683594 L 19.570312 -12.578125 L 18.902344 -14.882812 L 18.976562 -18.53125 L 19.648438 -20.09375 L 20.984375 -20.910156 L 23.886719 -20.910156 L 25.375 -21.058594 L 29.320312 -20.835938 L 31.332031 -20.984375 L 32.894531 -20.835938 L 34.234375 -20.910156 L 35.722656 -21.730469 L 36.464844 -23.144531 L 36.613281 -29.023438 L 36.464844 -30.511719 L 35.796875 -31.925781 L 34.53125 -32.746094 L 31.554688 -32.820312 L 30.066406 -32.667969 L 28.503906 -32.667969 L 26.789062 -32.820312 L 20.910156 -32.746094 L 19.648438 -33.5625 L 18.753906 -34.902344 L 18.605469 -37.210938 L 19.347656 -39.367188 L 21.65625 -40.039062 L 35.945312 -40.113281 L 37.507812 -40.929688 L 38.324219 -42.269531 L 38.175781 -45.320312 L 37.953125 -46.734375 L 38.027344 -48.371094 L 38.25 -49.785156 L 37.507812 -51.273438 L 35.945312 -51.945312 L 29.992188 -52.019531 L 28.652344 -51.871094 L 27.164062 -52.09375 L 23.886719 -51.945312 L 22.398438 -52.09375 L 19.496094 -52.019531 L 18.15625 -52.167969 L 8.410156 -51.945312 L 6.25 -51.421875 L 5.507812 -49.785156 L 5.65625 -46.808594 L 5.359375 -44.652344 L 5.65625 -40.855469 L 5.507812 -39.292969 L 5.65625 -37.953125 L 5.65625 -24.632812 L 5.433594 -23.070312 L 5.65625 -20.167969 L 5.507812 -17.191406 L 5.730469 -15.628906 L 5.582031 -13.992188 L 5.65625 -12.578125 L 5.433594 -11.238281 L 5.582031 -9.527344 L 5.582031 -8.039062 L 5.730469 -5.136719 L 5.65625 -3.648438 Z M 5.359375 -2.15625 "/></g></g></g><g fill="#000000" fill-opacity="1"><g transform="translate(177.450922, 192.179028)"><g><path d="M 3.570312 -2.15625 L 4.316406 -0.59375 L 5.804688 -0.0742188 L 27.90625 0.0742188 L 29.320312 -0.667969 L 30.140625 -2.007812 L 30.140625 -3.648438 L 29.992188 -4.984375 L 30.214844 -9.527344 L 29.171875 -10.789062 L 24.1875 -12.351562 L 23.367188 -13.84375 L 23.515625 -19.945312 L 23.21875 -22.921875 L 23.515625 -26.046875 L 23.367188 -28.277344 L 23.515625 -30.585938 L 23.367188 -32 L 23.515625 -33.488281 L 23.367188 -35.050781 L 23.367188 -38.175781 L 24.1875 -39.515625 L 25.601562 -40.335938 L 27.238281 -40.410156 L 28.652344 -41.226562 L 29.46875 -42.640625 L 29.46875 -47.03125 L 29.617188 -48.371094 L 29.46875 -49.859375 L 28.875 -51.347656 L 26.492188 -52.019531 L 17.042969 -52.09375 L 15.40625 -51.945312 L 10.863281 -52.019531 L 9.449219 -51.945312 L 6.550781 -52.09375 L 4.910156 -51.347656 L 4.09375 -49.785156 L 4.09375 -48.371094 L 3.945312 -47.105469 L 3.945312 -45.46875 L 4.09375 -43.980469 L 4.09375 -42.566406 L 4.835938 -41.152344 L 9.375 -39.589844 L 10.34375 -38.25 L 10.121094 -31.925781 L 10.195312 -30.660156 L 10.417969 -28.949219 L 10.34375 -25.898438 L 10.195312 -24.410156 L 10.492188 -21.507812 L 10.121094 -20.019531 L 10.417969 -16.820312 L 10.269531 -13.917969 L 9.527344 -12.277344 L 4.613281 -10.714844 L 3.722656 -9.300781 L 3.570312 -7.886719 Z M 3.570312 -2.15625 "/></g></g></g><g fill="#000000" fill-opacity="1"><g transform="translate(211.235696, 192.179028)"><g><path d="M 5.433594 -2.15625 L 6.175781 -0.746094 L 7.8125 0 L 13.023438 0.222656 L 16.746094 -0.0742188 L 18.308594 -0.746094 L 19.199219 -2.976562 L 18.976562 -5.359375 L 19.125 -6.773438 L 19.050781 -14.660156 L 19.722656 -16.148438 L 21.210938 -16.820312 L 22.847656 -16.96875 L 24.410156 -16.667969 L 25.898438 -16.96875 L 27.386719 -16.820312 L 28.949219 -16.894531 L 30.4375 -16.746094 L 33.488281 -16.894531 L 35.050781 -17.636719 L 35.796875 -19.945312 L 35.722656 -26.566406 L 34.976562 -28.054688 L 33.414062 -28.652344 L 29.765625 -28.800781 L 25.824219 -28.503906 L 22.921875 -28.875 L 21.285156 -28.800781 L 19.796875 -29.394531 L 18.976562 -30.957031 L 18.976562 -33.042969 L 19.125 -34.457031 L 18.976562 -37.804688 L 19.722656 -39.292969 L 21.136719 -40.261719 L 23.515625 -40.261719 L 25.675781 -40.113281 L 27.015625 -40.1875 L 28.503906 -40.113281 L 30.066406 -40.261719 L 35.722656 -40.113281 L 37.210938 -40.855469 L 37.953125 -42.34375 L 37.804688 -46.140625 L 37.953125 -48.96875 L 37.058594 -51.199219 L 35.796875 -52.019531 L 31.332031 -51.945312 L 29.691406 -52.167969 L 26.789062 -52.019531 L 25.449219 -52.167969 L 23.21875 -52.019531 L 21.730469 -52.09375 L 19.421875 -51.945312 L 16.519531 -51.945312 L 15.179688 -52.09375 L 11.386719 -52.09375 L 9.824219 -51.945312 L 7.738281 -52.019531 L 6.101562 -51.199219 L 5.65625 -49.859375 L 5.433594 -46.808594 L 5.65625 -44.578125 L 5.359375 -36.242188 L 5.507812 -34.976562 L 5.582031 -33.414062 L 5.433594 -32.074219 L 5.582031 -30.363281 L 5.433594 -29.023438 L 5.359375 -27.609375 L 5.507812 -26.195312 L 5.359375 -24.484375 Z M 5.433594 -2.15625 "/></g></g></g><g fill="#000000" fill-opacity="1"><g transform="translate(251.792322, 192.179028)"><g><path d="M 5.582031 -2.15625 L 6.25 -0.820312 L 8.632812 0.0742188 L 34.976562 -0.0742188 L 37.058594 -0.820312 L 37.878906 -2.15625 L 37.730469 -3.796875 L 37.804688 -5.285156 L 37.953125 -6.625 L 37.730469 -8.261719 L 37.953125 -9.675781 L 36.984375 -11.3125 L 35.796875 -12.054688 L 34.15625 -11.832031 L 21.058594 -11.980469 L 19.496094 -12.652344 L 19.050781 -14.289062 L 19.125 -17.042969 L 18.902344 -18.457031 L 18.976562 -20.09375 L 18.828125 -21.582031 L 18.976562 -23.144531 L 18.902344 -26.863281 L 19.125 -28.949219 L 18.902344 -30.585938 L 19.125 -32.148438 L 18.902344 -43.757812 L 19.050781 -45.394531 L 18.902344 -49.042969 L 18.15625 -51.273438 L 16.222656 -52.167969 L 8.484375 -52.019531 L 6.324219 -51.199219 L 5.359375 -49.191406 L 5.804688 -45.320312 L 5.65625 -43.90625 L 5.433594 -42.34375 L 5.65625 -40.855469 L 5.804688 -39.441406 L 5.582031 -37.804688 L 5.65625 -36.390625 L 5.507812 -34.902344 L 5.730469 -33.339844 L 5.507812 -32 L 5.65625 -30.511719 L 5.433594 -29.097656 L 5.65625 -25.898438 L 5.433594 -24.484375 L 5.65625 -21.507812 L 5.433594 -20.019531 L 5.507812 -17.042969 L 5.65625 -15.703125 L 5.582031 -6.625 L 5.730469 -5.136719 L 5.433594 -3.722656 Z M 5.582031 -2.15625 "/></g></g></g><g fill="#000000" fill-opacity="1"><g transform="translate(291.828044, 192.179028)"><g><path d="M 3.570312 -2.15625 L 4.316406 -0.59375 L 5.804688 -0.0742188 L 27.90625 0.0742188 L 29.320312 -0.667969 L 30.140625 -2.007812 L 30.140625 -3.648438 L 29.992188 -4.984375 L 30.214844 -9.527344 L 29.171875 -10.789062 L 24.1875 -12.351562 L 23.367188 -13.84375 L 23.515625 -19.945312 L 23.21875 -22.921875 L 23.515625 -26.046875 L 23.367188 -28.277344 L 23.515625 -30.585938 L 23.367188 -32 L 23.515625 -33.488281 L 23.367188 -35.050781 L 23.367188 -38.175781 L 24.1875 -39.515625 L 25.601562 -40.335938 L 27.238281 -40.410156 L 28.652344 -41.226562 L 29.46875 -42.640625 L 29.46875 -47.03125 L 29.617188 -48.371094 L 29.46875 -49.859375 L 28.875 -51.347656 L 26.492188 -52.019531 L 17.042969 -52.09375 L 15.40625 -51.945312 L 10.863281 -52.019531 L 9.449219 -51.945312 L 6.550781 -52.09375 L 4.910156 -51.347656 L 4.09375 -49.785156 L 4.09375 -48.371094 L 3.945312 -47.105469 L 3.945312 -45.46875 L 4.09375 -43.980469 L 4.09375 -42.566406 L 4.835938 -41.152344 L 9.375 -39.589844 L 10.34375 -38.25 L 10.121094 -31.925781 L 10.195312 -30.660156 L 10.417969 -28.949219 L 10.34375 -25.898438 L 10.195312 -24.410156 L 10.492188 -21.507812 L 10.121094 -20.019531 L 10.417969 -16.820312 L 10.269531 -13.917969 L 9.527344 -12.277344 L 4.613281 -10.714844 L 3.722656 -9.300781 L 3.570312 -7.886719 Z M 3.570312 -2.15625 "/></g></g></g><g fill="#000000" fill-opacity="1"><g transform="translate(325.612818, 192.179028)"><g><path d="M 0.96875 -2.082031 L 1.414062 -0.445312 L 2.902344 0.148438 L 4.390625 0.0742188 L 5.65625 0.148438 L 7.144531 0 L 12.726562 0 L 14.585938 -0.59375 L 16.148438 -1.785156 L 17.785156 -4.316406 L 21.136719 -10.640625 L 24.410156 -15.703125 L 25.375 -15.851562 L 26.195312 -14.511719 L 26.714844 -13.097656 L 27.757812 -11.832031 L 28.203125 -10.640625 L 33.5625 -1.710938 L 35.050781 -0.445312 L 36.6875 0.0742188 L 39.589844 0 L 40.855469 0.148438 L 46.882812 0 L 48.074219 -0.445312 L 48.371094 -2.007812 L 47.703125 -3.871094 L 44.578125 -8.707031 L 43.609375 -9.898438 L 42.941406 -11.089844 L 41.972656 -12.128906 L 41.375 -13.46875 L 40.484375 -14.734375 L 39.441406 -15.851562 L 38.699219 -17.265625 L 37.953125 -18.382812 L 36.464844 -20.984375 L 35.496094 -22.027344 L 34.007812 -24.558594 L 32.96875 -25.824219 L 32.746094 -27.609375 L 33.339844 -29.394531 L 34.15625 -30.660156 L 34.753906 -31.925781 L 35.648438 -33.191406 L 36.761719 -34.382812 L 46.660156 -49.859375 L 46.140625 -51.347656 L 44.652344 -51.871094 L 41.824219 -52.09375 L 40.261719 -51.945312 L 37.804688 -52.09375 L 36.390625 -52.019531 L 33.710938 -51.421875 L 32.296875 -50.082031 L 30.066406 -46.585938 L 29.097656 -45.394531 L 26.863281 -41.449219 L 25.972656 -40.1875 L 25.300781 -38.996094 L 24.335938 -38.921875 L 23.292969 -40.335938 L 19.722656 -46.511719 L 18.753906 -47.628906 L 18.15625 -48.894531 L 17.265625 -50.15625 L 16 -51.421875 L 14.066406 -52.019531 L 4.835938 -52.09375 L 2.976562 -51.570312 L 2.753906 -49.710938 L 4.613281 -46.808594 L 5.507812 -45.542969 L 6.25 -44.277344 L 7.292969 -43.238281 L 10.417969 -38.175781 L 11.3125 -36.984375 L 12.949219 -34.308594 L 13.917969 -33.265625 L 14.660156 -32 L 15.253906 -30.511719 L 16.148438 -29.246094 L 16.667969 -27.460938 L 16.296875 -25.675781 L 15.554688 -24.632812 L 14.511719 -23.292969 L 13.917969 -22.027344 L 11.386719 -18.382812 L 10.941406 -17.265625 L 9.003906 -14.660156 L 8.410156 -13.617188 L 7.21875 -12.203125 L 6.625 -10.941406 L 2.15625 -4.390625 Z M 0.96875 -2.082031 "/></g></g></g></svg>