<svg xmlns="http://www.w3.org/2000/svg" xmlns:xlink="http://www.w3.org/1999/xlink" zoomAndPan="magnify" preserveAspectRatio="xMidYMid meet" version="1.0" viewBox="74.83 138.68 285.4 48.45"><defs><g/><clipPath id="c1aa28d120"><path d="M 228 138 L 361 138 L 361 188 L 228 188 Z M 228 138 " clip-rule="nonzero"/></clipPath><clipPath id="3074a5bdde"><path d="M 294.257812 72.75 L 384.414062 162.90625 L 294.257812 253.0625 L 204.101562 162.90625 Z M 294.257812 72.75 " clip-rule="nonzero"/></clipPath><clipPath id="e306bf4f04"><path d="M 294.257812 72.75 L 384.414062 162.90625 L 294.257812 253.0625 L 204.101562 162.90625 Z M 294.257812 72.75 " clip-rule="nonzero"/></clipPath><clipPath id="1e3967ea3b"><path d="M 294.257812 72.75 L 384.414062 162.90625 L 294.257812 253.0625 L 204.101562 162.90625 Z M 294.257812 72.75 " clip-rule="nonzero"/></clipPath><clipPath id="8185c029ac"><path d="M 294.269531 72.757812 L 384.425781 162.914062 L 294.269531 253.070312 L 204.113281 162.914062 Z M 294.269531 72.757812 " clip-rule="nonzero"/></clipPath><clipPath id="964f40629c"><path d="M 294.269531 72.757812 L 384.398438 162.886719 L 294.242188 253.042969 L 204.113281 162.914062 Z M 294.269531 72.757812 " clip-rule="nonzero"/></clipPath></defs><g clip-path="url(#c1aa28d120)"><g clip-path="url(#3074a5bdde)"><g clip-path="url(#e306bf4f04)"><g clip-path="url(#1e3967ea3b)"><g clip-path="url(#8185c029ac)"><g clip-path="url(#964f40629c)"><path fill="#15a9e9" d="M 354.773438 184.757812 C 354.5 184.757812 354.28125 184.539062 354.285156 184.265625 L 354.285156 180.9375 C 354.28125 180.660156 354.5 180.441406 354.773438 180.445312 L 357.175781 180.441406 C 357.449219 180.441406 357.667969 180.664062 357.667969 180.9375 L 357.667969 184.265625 C 357.667969 184.539062 357.449219 184.757812 357.175781 184.757812 Z M 349.914062 184.757812 C 349.09375 184.757812 348.332031 184.757812 347.511719 184.757812 C 347.238281 184.757812 347.019531 184.539062 347.019531 184.265625 C 347.046875 183.148438 347.046875 182.054688 347.019531 180.933594 C 347.019531 180.660156 347.238281 180.441406 347.511719 180.441406 C 348.328125 180.441406 349.09375 180.441406 349.914062 180.445312 C 350.1875 180.445312 350.40625 180.664062 350.40625 180.9375 C 350.378906 182.054688 350.378906 183.144531 350.40625 184.265625 C 350.40625 184.539062 350.1875 184.757812 349.914062 184.757812 Z M 342.652344 184.757812 C 341.832031 184.757812 341.066406 184.757812 340.246094 184.757812 C 339.972656 184.757812 339.757812 184.539062 339.757812 184.265625 C 339.785156 183.144531 339.785156 182.054688 339.757812 180.9375 C 339.757812 180.660156 339.972656 180.441406 340.25 180.445312 C 341.066406 180.441406 341.832031 180.445312 342.652344 180.441406 C 342.921875 180.441406 343.140625 180.660156 343.144531 180.9375 C 343.140625 182.027344 343.113281 183.144531 343.144531 184.265625 C 343.140625 184.539062 342.921875 184.757812 342.652344 184.757812 Z M 335.386719 184.757812 C 334.570312 184.757812 333.804688 184.757812 332.988281 184.757812 C 332.710938 184.757812 332.492188 184.539062 332.492188 184.265625 C 332.523438 183.148438 332.523438 182.054688 332.496094 180.933594 C 332.496094 180.660156 332.738281 180.417969 332.988281 180.441406 L 335.390625 180.441406 C 335.660156 180.445312 335.878906 180.664062 335.882812 180.933594 C 335.878906 182.027344 335.851562 183.144531 335.878906 184.265625 C 335.878906 184.539062 335.660156 184.757812 335.386719 184.757812 Z M 328.125 184.757812 C 327.304688 184.757812 326.542969 184.757812 325.722656 184.757812 C 325.449219 184.757812 325.230469 184.539062 325.230469 184.265625 C 325.257812 183.144531 325.257812 182.054688 325.230469 180.933594 C 325.230469 180.660156 325.476562 180.414062 325.75 180.414062 C 326.542969 180.441406 327.304688 180.445312 328.125 180.441406 C 328.398438 180.441406 328.617188 180.660156 328.617188 180.9375 C 328.617188 182.027344 328.617188 183.171875 328.617188 184.265625 C 328.617188 184.539062 328.398438 184.757812 328.125 184.757812 Z M 320.863281 184.757812 C 320.042969 184.757812 319.277344 184.757812 318.488281 184.785156 C 318.214844 184.785156 317.96875 184.539062 317.96875 184.265625 C 317.996094 183.148438 317.996094 182.054688 317.96875 180.9375 C 317.96875 180.660156 318.214844 180.417969 318.488281 180.417969 C 319.277344 180.441406 320.042969 180.441406 320.863281 180.441406 C 321.136719 180.445312 321.355469 180.664062 321.355469 180.9375 C 321.355469 182.027344 321.355469 183.171875 321.355469 184.265625 C 321.355469 184.539062 321.136719 184.757812 320.863281 184.757812 Z M 313.601562 184.757812 C 312.78125 184.757812 312.015625 184.757812 311.222656 184.785156 C 310.949219 184.785156 310.707031 184.539062 310.707031 184.265625 C 310.734375 183.144531 310.734375 182.054688 310.707031 180.933594 C 310.707031 180.660156 310.953125 180.414062 311.226562 180.414062 C 312.019531 180.441406 312.78125 180.445312 313.601562 180.441406 C 313.875 180.441406 314.089844 180.660156 314.089844 180.933594 L 314.089844 184.265625 C 314.089844 184.539062 313.875 184.757812 313.601562 184.757812 Z M 306.339844 184.757812 C 305.519531 184.757812 304.753906 184.757812 303.960938 184.785156 C 303.714844 184.757812 303.46875 184.511719 303.441406 184.265625 C 303.46875 183.144531 303.472656 182.054688 303.441406 180.9375 C 303.445312 180.660156 303.691406 180.417969 303.960938 180.417969 C 304.753906 180.441406 305.542969 180.417969 306.335938 180.441406 C 306.609375 180.445312 306.828125 180.664062 306.828125 180.9375 C 306.828125 182.027344 306.828125 183.171875 306.828125 184.265625 C 306.828125 184.539062 306.609375 184.757812 306.339844 184.757812 Z M 299.074219 184.757812 L 296.726562 184.757812 C 296.453125 184.757812 296.207031 184.511719 296.207031 184.238281 C 296.207031 183.144531 296.207031 182.054688 296.207031 180.90625 C 296.179688 180.660156 296.425781 180.417969 296.699219 180.414062 C 297.492188 180.445312 298.285156 180.417969 299.074219 180.441406 C 299.347656 180.441406 299.566406 180.660156 299.566406 180.933594 C 299.566406 182.027344 299.566406 183.171875 299.566406 184.265625 C 299.566406 184.539062 299.347656 184.757812 299.074219 184.757812 Z M 291.8125 184.757812 C 291.019531 184.785156 290.226562 184.757812 289.464844 184.757812 C 289.191406 184.757812 288.945312 184.511719 288.945312 184.238281 C 288.945312 183.144531 288.945312 182.054688 288.945312 180.90625 C 288.972656 180.660156 289.191406 180.441406 289.4375 180.417969 C 290.226562 180.441406 291.019531 180.417969 291.8125 180.441406 C 292.085938 180.445312 292.304688 180.664062 292.304688 180.9375 C 292.300781 182.027344 292.304688 183.171875 292.304688 184.265625 C 292.300781 184.539062 292.085938 184.757812 291.8125 184.757812 Z M 284.546875 184.757812 C 283.757812 184.785156 282.964844 184.757812 282.199219 184.757812 C 281.929688 184.757812 281.683594 184.511719 281.710938 184.265625 C 281.683594 183.144531 281.683594 182.054688 281.710938 180.9375 C 281.710938 180.664062 281.929688 180.445312 282.203125 180.441406 C 282.964844 180.445312 283.757812 180.417969 284.550781 180.441406 C 284.824219 180.441406 285.042969 180.660156 285.042969 180.933594 C 285.042969 182.027344 285.042969 183.171875 285.039062 184.265625 C 285.042969 184.539062 284.824219 184.757812 284.546875 184.757812 Z M 277.289062 184.757812 C 276.496094 184.785156 275.703125 184.757812 274.9375 184.757812 C 274.664062 184.757812 274.445312 184.539062 274.445312 184.265625 C 274.417969 183.144531 274.421875 182.054688 274.445312 180.933594 C 274.445312 180.660156 274.664062 180.441406 274.9375 180.441406 C 275.703125 180.441406 276.496094 180.417969 277.285156 180.441406 C 277.558594 180.441406 277.777344 180.664062 277.777344 180.9375 C 277.777344 182.027344 277.777344 183.171875 277.777344 184.265625 C 277.777344 184.539062 277.558594 184.757812 277.289062 184.757812 Z M 270.023438 184.757812 C 269.261719 184.757812 268.441406 184.757812 267.675781 184.757812 C 267.402344 184.757812 267.183594 184.539062 267.183594 184.265625 C 267.15625 183.148438 267.15625 182.054688 267.183594 180.9375 C 267.183594 180.664062 267.402344 180.445312 267.675781 180.441406 C 268.441406 180.445312 269.234375 180.417969 270.023438 180.441406 C 270.296875 180.441406 270.515625 180.660156 270.515625 180.933594 C 270.515625 182.027344 270.515625 183.171875 270.515625 184.265625 C 270.515625 184.539062 270.296875 184.757812 270.023438 184.757812 Z M 262.761719 184.757812 C 261.996094 184.757812 261.179688 184.757812 260.414062 184.757812 C 260.140625 184.757812 259.921875 184.539062 259.921875 184.265625 C 259.894531 183.144531 259.894531 182.054688 259.921875 180.933594 C 259.921875 180.660156 260.140625 180.441406 260.414062 180.441406 L 262.761719 180.441406 C 263.035156 180.441406 263.25 180.660156 263.253906 180.9375 C 263.25 182.027344 263.25 183.171875 263.253906 184.265625 C 263.25 184.539062 263.035156 184.757812 262.761719 184.757812 Z M 255.5 184.757812 L 253.148438 184.757812 C 252.878906 184.757812 252.660156 184.539062 252.660156 184.265625 C 252.632812 183.148438 252.632812 182.054688 252.65625 180.933594 C 252.660156 180.664062 252.878906 180.445312 253.148438 180.441406 C 253.914062 180.445312 254.734375 180.441406 255.5 180.441406 C 255.773438 180.441406 255.992188 180.660156 255.992188 180.933594 C 255.988281 182.027344 255.992188 183.171875 255.988281 184.265625 C 255.988281 184.539062 255.769531 184.757812 255.5 184.757812 Z M 248.238281 184.757812 C 247.472656 184.757812 246.652344 184.757812 245.886719 184.757812 C 245.613281 184.757812 245.398438 184.539062 245.398438 184.265625 C 245.367188 183.144531 245.371094 182.054688 245.398438 180.933594 C 245.398438 180.660156 245.613281 180.441406 245.886719 180.441406 C 246.652344 180.445312 247.46875 180.441406 248.234375 180.441406 C 248.507812 180.441406 248.726562 180.660156 248.726562 180.9375 C 248.726562 182.027344 248.726562 183.171875 248.726562 184.265625 C 248.726562 184.539062 248.511719 184.757812 248.238281 184.757812 Z M 240.972656 184.757812 C 240.207031 184.757812 239.386719 184.757812 238.625 184.757812 C 238.351562 184.757812 238.132812 184.539062 238.132812 184.265625 C 238.105469 183.148438 238.105469 182.054688 238.132812 180.9375 C 238.132812 180.664062 238.351562 180.445312 238.625 180.445312 C 239.390625 180.445312 240.210938 180.441406 240.972656 180.445312 C 241.246094 180.441406 241.464844 180.660156 241.464844 180.9375 C 241.464844 182.027344 241.492188 183.148438 241.464844 184.265625 C 241.464844 184.539062 241.246094 184.757812 240.972656 184.757812 Z M 233.710938 184.757812 L 231.363281 184.757812 C 231.089844 184.757812 230.871094 184.539062 230.871094 184.265625 L 230.871094 180.9375 C 230.871094 180.664062 231.089844 180.441406 231.363281 180.441406 L 233.710938 180.441406 C 233.984375 180.441406 234.203125 180.660156 234.203125 180.933594 L 234.203125 184.265625 C 234.203125 184.539062 233.984375 184.757812 233.710938 184.757812 Z M 230.871094 176.457031 L 230.871094 149.375 C 230.871094 148.496094 231.582031 147.789062 232.453125 147.789062 L 268.441406 147.789062 C 269.3125 147.789062 270.023438 148.496094 270.023438 149.375 L 270.023438 176.457031 C 270.023438 177.332031 269.3125 178.039062 268.441406 178.039062 L 232.453125 178.039062 C 231.582031 178.039062 230.871094 177.332031 230.871094 176.457031 Z M 238.597656 141.042969 C 239.417969 141.042969 240.179688 141.046875 240.972656 141.015625 C 241.246094 141.015625 241.492188 141.261719 241.492188 141.535156 C 241.464844 142.65625 241.464844 143.746094 241.492188 144.867188 C 241.492188 145.140625 241.273438 145.359375 241 145.359375 C 240.179688 145.359375 239.417969 145.359375 238.597656 145.355469 C 238.324219 145.355469 238.109375 145.140625 238.105469 144.867188 C 238.132812 143.746094 238.105469 142.628906 238.105469 141.535156 C 238.105469 141.261719 238.324219 141.042969 238.597656 141.042969 Z M 233.738281 145.359375 L 231.335938 145.359375 C 231.0625 145.359375 230.84375 145.140625 230.84375 144.867188 L 230.84375 141.535156 C 230.84375 141.261719 231.0625 141.042969 231.335938 141.042969 L 233.710938 141.019531 C 233.984375 141.015625 234.230469 141.261719 234.226562 141.535156 L 234.230469 144.867188 C 234.230469 145.140625 234.011719 145.359375 233.738281 145.359375 Z M 245.859375 141.042969 C 246.652344 141.019531 247.445312 141.042969 248.238281 141.015625 C 248.507812 141.015625 248.753906 141.261719 248.753906 141.535156 C 248.726562 142.65625 248.726562 143.746094 248.753906 144.867188 C 248.726562 145.113281 248.507812 145.332031 248.261719 145.359375 C 247.441406 145.359375 246.679688 145.359375 245.859375 145.359375 C 245.585938 145.359375 245.367188 145.140625 245.367188 144.867188 C 245.394531 143.75 245.367188 142.628906 245.367188 141.535156 C 245.371094 141.261719 245.589844 141.042969 245.859375 141.042969 Z M 253.121094 141.042969 C 253.914062 141.015625 254.707031 141.042969 255.5 141.015625 C 255.769531 141.015625 256.015625 141.261719 255.988281 141.507812 C 255.988281 142.65625 255.988281 143.746094 255.988281 144.839844 C 255.988281 145.113281 255.769531 145.332031 255.496094 145.332031 C 254.707031 145.359375 253.941406 145.359375 253.121094 145.359375 C 252.851562 145.355469 252.632812 145.140625 252.628906 144.867188 C 252.660156 143.746094 252.628906 142.628906 252.632812 141.535156 C 252.632812 141.261719 252.851562 141.042969 253.121094 141.042969 Z M 260.386719 141.042969 C 261.175781 141.019531 261.96875 141.042969 262.761719 141.015625 C 263.035156 141.015625 263.253906 141.234375 263.253906 141.507812 C 263.25 142.65625 263.253906 143.746094 263.25 144.839844 C 263.25 145.113281 263.035156 145.332031 262.761719 145.332031 C 261.96875 145.359375 261.207031 145.359375 260.386719 145.359375 C 260.113281 145.359375 259.894531 145.140625 259.894531 144.867188 C 259.921875 143.75 259.894531 142.628906 259.894531 141.535156 C 259.894531 141.261719 260.113281 141.042969 260.386719 141.042969 Z M 267.648438 141.042969 C 268.441406 141.015625 269.230469 141.042969 270.023438 141.015625 C 270.296875 141.015625 270.515625 141.234375 270.515625 141.507812 C 270.515625 142.65625 270.515625 143.746094 270.515625 144.839844 C 270.515625 145.113281 270.296875 145.332031 270.023438 145.332031 C 269.230469 145.359375 268.464844 145.359375 267.648438 145.359375 C 267.375 145.359375 267.160156 145.140625 267.160156 144.867188 C 267.183594 143.746094 267.15625 142.628906 267.15625 141.535156 C 267.15625 141.261719 267.375 141.042969 267.648438 141.042969 Z M 274.910156 141.042969 C 275.703125 141.019531 276.496094 141.042969 277.289062 141.015625 C 277.558594 141.015625 277.777344 141.234375 277.777344 141.507812 C 277.777344 142.65625 277.777344 143.746094 277.777344 144.839844 C 277.777344 145.113281 277.558594 145.332031 277.285156 145.332031 C 276.492188 145.359375 275.730469 145.359375 274.910156 145.359375 C 274.636719 145.359375 274.417969 145.140625 274.417969 144.867188 C 274.445312 143.75 274.421875 142.628906 274.421875 141.535156 C 274.421875 141.261719 274.640625 141.042969 274.910156 141.042969 Z M 282.171875 141.042969 C 282.964844 141.015625 283.757812 141.042969 284.546875 141.015625 C 284.820312 141.015625 285.039062 141.234375 285.042969 141.507812 C 285.042969 142.65625 285.039062 143.746094 285.042969 144.839844 C 285.039062 145.113281 284.820312 145.332031 284.546875 145.332031 C 283.757812 145.359375 282.964844 145.332031 282.175781 145.359375 C 281.902344 145.359375 281.683594 145.140625 281.683594 144.867188 C 281.710938 143.746094 281.679688 142.628906 281.679688 141.535156 C 281.679688 141.261719 281.898438 141.042969 282.171875 141.042969 Z M 289.4375 141.042969 C 290.226562 141.019531 291.019531 141.042969 291.8125 141.015625 C 292.085938 141.015625 292.304688 141.234375 292.304688 141.507812 C 292.300781 142.65625 292.304688 143.746094 292.300781 144.839844 C 292.300781 145.113281 292.058594 145.355469 291.8125 145.332031 C 291.023438 145.359375 290.226562 145.332031 289.433594 145.359375 C 289.164062 145.359375 288.945312 145.140625 288.945312 144.867188 C 288.945312 143.777344 288.945312 142.628906 288.945312 141.535156 C 288.945312 141.261719 289.164062 141.042969 289.4375 141.042969 Z M 296.699219 141.042969 C 297.492188 141.015625 298.285156 141.042969 299.074219 141.015625 C 299.347656 141.019531 299.566406 141.238281 299.566406 141.507812 L 299.566406 144.839844 C 299.566406 145.113281 299.320312 145.359375 299.046875 145.359375 C 298.28125 145.359375 297.492188 145.332031 296.699219 145.359375 C 296.425781 145.359375 296.207031 145.140625 296.207031 144.867188 C 296.207031 143.773438 296.207031 142.628906 296.207031 141.535156 C 296.207031 141.261719 296.425781 141.042969 296.699219 141.042969 Z M 303.960938 141.042969 C 304.753906 141.015625 305.542969 141.042969 306.339844 141.015625 C 306.609375 141.015625 306.828125 141.234375 306.828125 141.507812 C 306.832031 142.65625 306.828125 143.746094 306.828125 144.839844 C 306.828125 145.113281 306.585938 145.359375 306.308594 145.359375 C 305.546875 145.359375 304.753906 145.332031 303.960938 145.359375 C 303.691406 145.359375 303.472656 145.140625 303.46875 144.867188 C 303.441406 143.746094 303.472656 142.628906 303.472656 141.535156 C 303.472656 141.261719 303.691406 141.042969 303.960938 141.042969 Z M 311.222656 141.042969 C 312.015625 141.015625 312.808594 141.042969 313.597656 141.015625 C 313.875 141.019531 314.089844 141.238281 314.089844 141.507812 L 314.089844 144.839844 C 314.089844 145.113281 313.84375 145.359375 313.574219 145.359375 C 312.808594 145.359375 312.019531 145.332031 311.226562 145.359375 C 310.953125 145.359375 310.734375 145.140625 310.734375 144.867188 C 310.707031 143.746094 310.734375 142.628906 310.730469 141.535156 C 310.730469 141.261719 310.949219 141.042969 311.222656 141.042969 Z M 318.488281 141.042969 C 319.28125 141.015625 320.070312 141.042969 320.863281 141.015625 C 321.136719 141.015625 321.355469 141.234375 321.355469 141.507812 C 321.355469 142.65625 321.355469 143.746094 321.355469 144.839844 C 321.355469 145.113281 321.109375 145.359375 320.835938 145.359375 C 320.070312 145.359375 319.253906 145.359375 318.484375 145.359375 C 318.214844 145.359375 317.996094 145.140625 317.996094 144.867188 C 317.96875 143.746094 317.996094 142.628906 317.996094 141.535156 C 317.996094 141.261719 318.214844 141.042969 318.488281 141.042969 Z M 325.75 141.042969 C 326.542969 141.015625 327.335938 141.046875 328.097656 141.046875 C 328.371094 141.046875 328.589844 141.261719 328.589844 141.535156 C 328.617188 142.65625 328.617188 143.75 328.589844 144.867188 C 328.617188 145.113281 328.371094 145.359375 328.097656 145.359375 C 327.332031 145.359375 326.515625 145.359375 325.75 145.359375 C 325.476562 145.359375 325.257812 145.140625 325.257812 144.867188 C 325.230469 143.75 325.257812 142.628906 325.257812 141.535156 C 325.257812 141.261719 325.476562 141.042969 325.75 141.042969 Z M 333.011719 141.042969 C 333.804688 141.015625 334.597656 141.042969 335.359375 141.042969 C 335.632812 141.042969 335.851562 141.261719 335.855469 141.535156 C 335.878906 142.65625 335.878906 143.746094 335.851562 144.867188 C 335.851562 145.140625 335.632812 145.359375 335.363281 145.359375 C 334.597656 145.359375 333.777344 145.359375 333.015625 145.359375 C 332.742188 145.359375 332.523438 145.140625 332.523438 144.867188 C 332.492188 143.746094 332.523438 142.628906 332.523438 141.535156 C 332.523438 141.261719 332.738281 141.042969 333.011719 141.042969 Z M 340.277344 141.046875 C 341.066406 141.015625 341.859375 141.042969 342.625 141.046875 C 342.898438 141.046875 343.117188 141.261719 343.117188 141.535156 C 343.140625 142.65625 343.144531 143.75 343.113281 144.867188 C 343.113281 145.140625 342.894531 145.359375 342.625 145.359375 C 341.859375 145.355469 341.039062 145.359375 340.277344 145.359375 C 340.003906 145.359375 339.785156 145.140625 339.785156 144.867188 C 339.757812 143.75 339.785156 142.628906 339.785156 141.535156 C 339.78125 141.261719 340 141.042969 340.277344 141.046875 Z M 347.539062 141.042969 C 348.332031 141.015625 349.121094 141.042969 349.886719 141.042969 C 350.160156 141.042969 350.375 141.261719 350.378906 141.535156 C 350.378906 142.628906 350.40625 143.746094 350.378906 144.867188 C 350.378906 145.140625 350.160156 145.359375 349.886719 145.359375 C 349.121094 145.359375 348.304688 145.359375 347.539062 145.359375 C 347.265625 145.359375 347.046875 145.140625 347.046875 144.867188 C 347.019531 143.746094 347.046875 142.628906 347.046875 141.535156 C 347.046875 141.261719 347.265625 141.042969 347.539062 141.042969 Z M 354.800781 141.046875 L 357.148438 141.046875 C 357.421875 141.046875 357.640625 141.261719 357.640625 141.535156 L 357.640625 144.867188 C 357.640625 145.136719 357.421875 145.355469 357.148438 145.359375 L 354.800781 145.359375 C 354.527344 145.359375 354.308594 145.140625 354.308594 144.867188 L 354.308594 141.535156 C 354.308594 141.261719 354.527344 141.042969 354.800781 141.046875 Z M 312.234375 178.042969 L 276.25 178.042969 C 275.375 178.042969 274.664062 177.328125 274.664062 176.457031 C 274.667969 167.445312 274.667969 158.382812 274.664062 149.375 C 274.664062 148.5 275.375 147.789062 276.25 147.789062 C 288.261719 147.789062 300.25 147.761719 312.261719 147.761719 C 313.136719 147.761719 313.84375 148.472656 313.871094 149.375 C 313.84375 158.410156 313.84375 167.421875 313.847656 176.429688 C 313.847656 177.304688 313.109375 178.042969 312.234375 178.042969 Z M 357.667969 149.375 L 357.667969 176.457031 C 357.667969 177.332031 356.957031 178.042969 356.054688 178.070312 L 320.042969 178.042969 C 319.167969 178.042969 318.457031 177.332031 318.457031 176.457031 L 318.457031 149.371094 C 318.457031 148.496094 319.195312 147.761719 320.070312 147.761719 L 356.054688 147.761719 C 356.929688 147.761719 357.667969 148.5 357.667969 149.375 Z M 360.207031 138.695312 L 228.332031 138.695312 L 228.332031 187.132812 L 360.179688 187.105469 L 360.207031 138.695312 " fill-opacity="1" fill-rule="evenodd"/></g></g></g></g></g></g><g fill="#38b6ff" fill-opacity="1"><g transform="translate(70.821292, 182.426268)"><g><path d="M 4.03125 -1.625 L 4.757812 -0.558594 L 5.824219 0.0546875 L 18.476562 -0.0546875 L 19.484375 0.113281 L 22.902344 -0.0546875 L 26.316406 0.167969 L 27.382812 0.0546875 L 28.558594 -0.503906 L 29.0625 -1.566406 L 29.171875 -2.632812 L 29.117188 -6.101562 L 29.230469 -7.167969 L 28.5 -8.289062 L 26.820312 -8.847656 L 19.429688 -8.960938 L 18.367188 -8.792969 L 17.132812 -8.902344 L 15.902344 -8.792969 L 14.726562 -9.464844 L 14.222656 -11.199219 L 14.277344 -13.941406 L 14.78125 -15.117188 L 15.789062 -15.734375 L 17.972656 -15.734375 L 19.09375 -15.847656 L 22.0625 -15.679688 L 23.574219 -15.789062 L 24.75 -15.679688 L 25.757812 -15.734375 L 26.878906 -16.351562 L 27.4375 -17.414062 L 27.550781 -21.839844 L 27.4375 -22.957031 L 26.933594 -24.023438 L 25.980469 -24.636719 L 23.742188 -24.695312 L 22.621094 -24.582031 L 21.445312 -24.582031 L 20.15625 -24.695312 L 15.734375 -24.636719 L 14.78125 -25.253906 L 14.109375 -26.261719 L 14 -27.996094 L 14.558594 -29.621094 L 16.292969 -30.125 L 27.046875 -30.179688 L 28.222656 -30.796875 L 28.835938 -31.804688 L 28.726562 -34.101562 L 28.558594 -35.164062 L 28.613281 -36.398438 L 28.78125 -37.460938 L 28.222656 -38.582031 L 27.046875 -39.085938 L 22.566406 -39.140625 L 21.558594 -39.027344 L 20.4375 -39.195312 L 17.972656 -39.085938 L 16.855469 -39.195312 L 14.671875 -39.140625 L 13.664062 -39.253906 L 6.328125 -39.085938 L 4.703125 -38.691406 L 4.144531 -37.460938 L 4.253906 -35.222656 L 4.03125 -33.597656 L 4.253906 -30.742188 L 4.144531 -29.566406 L 4.253906 -28.558594 L 4.253906 -18.535156 L 4.085938 -17.359375 L 4.253906 -15.175781 L 4.144531 -12.933594 L 4.3125 -11.757812 L 4.199219 -10.527344 L 4.253906 -9.464844 L 4.085938 -8.457031 L 4.199219 -7.167969 L 4.199219 -6.046875 L 4.3125 -3.863281 L 4.253906 -2.742188 Z M 4.03125 -1.625 "/></g></g></g><g fill="#38b6ff" fill-opacity="1"><g transform="translate(102.904812, 182.426268)"><g><path d="M 4.085938 -1.566406 L 4.648438 -0.503906 L 6.382812 0.113281 L 12.542969 0.0546875 L 13.664062 -0.503906 L 14.390625 -2.238281 L 14.335938 -3.976562 L 14.445312 -5.152344 L 14.277344 -7.558594 L 14.335938 -8.625 L 14.277344 -9.6875 L 14.390625 -10.863281 L 14.894531 -12.039062 L 16.574219 -12.597656 L 25.308594 -12.65625 L 26.375 -13.160156 L 26.988281 -14.277344 L 26.933594 -15.511719 L 27.046875 -18.871094 L 26.878906 -19.933594 L 26.316406 -21.109375 L 24.636719 -21.671875 L 16.125 -21.671875 L 14.839844 -22.117188 L 14.222656 -23.125 L 14.222656 -26.429688 L 14.390625 -27.605469 L 14.335938 -28.558594 L 14.894531 -29.675781 L 16.519531 -30.238281 L 18.140625 -30.179688 L 19.765625 -30.292969 L 22.511719 -30.125 L 23.628906 -30.238281 L 25.925781 -30.125 L 27.046875 -30.292969 L 28.109375 -30.796875 L 28.5 -31.917969 L 28.5 -32.980469 L 28.613281 -34.101562 L 28.5 -35.164062 L 28.613281 -36.339844 L 28.5 -37.515625 L 27.941406 -38.582031 L 26.933594 -39.085938 L 25.589844 -39.253906 L 23.574219 -39.085938 L 22.398438 -39.140625 L 21.222656 -39.085938 L 20.15625 -39.195312 L 19.09375 -39.085938 L 5.710938 -39.085938 L 4.648438 -38.523438 L 4.03125 -37.460938 L 4.253906 -30.742188 L 4.144531 -29.675781 L 4.085938 -21.726562 L 4.253906 -20.71875 L 4.144531 -19.652344 L 4.144531 -18.535156 L 4.03125 -17.300781 L 4.253906 -15.566406 L 4.085938 -3.976562 L 4.199219 -2.6875 Z M 4.085938 -1.566406 "/></g></g></g><g fill="#38b6ff" fill-opacity="1"><g transform="translate(133.42055, 182.426268)"><g><path d="M 4.3125 -1.792969 L 4.703125 -0.558594 L 5.824219 0 L 6.886719 0.0546875 L 9.183594 -0.113281 L 10.359375 0 L 12.039062 0 L 13.773438 -0.558594 L 14.167969 -1.625 L 14.277344 -2.800781 L 14.054688 -3.976562 L 14.222656 -6.382812 L 14.109375 -9.855469 L 14.613281 -10.976562 L 15.734375 -11.535156 L 16.742188 -11.535156 L 17.75 -11.589844 L 19.148438 -11.144531 L 20.046875 -10.191406 L 21.503906 -8.230469 L 21.894531 -7.167969 L 23.460938 -4.367188 L 24.191406 -3.304688 L 24.695312 -2.351562 L 25.367188 -1.457031 L 26.484375 -0.449219 L 27.886719 -0.113281 L 29.902344 0 L 31.132812 -0.113281 L 32.253906 0 L 34.492188 0 L 35.726562 -0.113281 L 36.902344 -0.390625 L 37.125 -1.566406 L 36.398438 -2.96875 L 34.605469 -5.710938 L 34.101562 -6.664062 L 33.429688 -7.671875 L 32.867188 -8.679688 L 32.140625 -9.574219 L 30.460938 -12.488281 L 30.292969 -13.832031 L 30.910156 -15.007812 L 32.476562 -16.519531 L 33.148438 -17.46875 L 33.539062 -18.535156 L 34.15625 -19.542969 L 34.550781 -20.496094 L 35.164062 -22.621094 L 35.222656 -27.046875 L 34.941406 -28.109375 L 34.773438 -29.171875 L 34.492188 -30.292969 L 32.980469 -33.371094 L 32.195312 -34.214844 L 31.691406 -35.054688 L 28.894531 -37.179688 L 26.933594 -38.1875 L 22.285156 -39.140625 L 20.886719 -39.253906 L 19.261719 -39.195312 L 18.03125 -39.253906 L 16.910156 -39.140625 L 15.679688 -39.253906 L 14.726562 -39.140625 L 11.367188 -39.253906 L 10.304688 -39.085938 L 8.007812 -39.308594 L 6.945312 -39.140625 L 5.710938 -39.195312 L 4.648438 -38.691406 L 4.199219 -37.515625 L 4.03125 -21.839844 L 4.199219 -20.214844 L 4.199219 -17.414062 L 4.085938 -16.238281 L 4.03125 -14.109375 L 4.199219 -12.878906 L 4.03125 -10.582031 L 4.253906 -7.335938 L 4.144531 -6.160156 Z M 15.734375 -20.605469 L 14.78125 -21.109375 L 14.222656 -22.285156 L 14.054688 -28.558594 L 14.726562 -29.675781 L 15.847656 -30.238281 L 16.742188 -30.292969 L 19.820312 -30.238281 L 22.398438 -29.902344 L 24.132812 -28.835938 L 24.695312 -27.996094 L 25.085938 -27.101562 L 25.199219 -25.476562 L 25.03125 -23.964844 L 24.582031 -22.847656 L 23.964844 -21.894531 L 23.292969 -21.222656 L 22.453125 -20.832031 L 18.085938 -20.4375 L 16.964844 -20.605469 Z M 15.734375 -20.605469 "/></g></g></g><g fill="#38b6ff" fill-opacity="1"><g transform="translate(172.223137, 182.426268)"><g><path d="M 4.03125 -1.625 L 4.757812 -0.558594 L 5.824219 0.0546875 L 18.476562 -0.0546875 L 19.484375 0.113281 L 22.902344 -0.0546875 L 26.316406 0.167969 L 27.382812 0.0546875 L 28.558594 -0.503906 L 29.0625 -1.566406 L 29.171875 -2.632812 L 29.117188 -6.101562 L 29.230469 -7.167969 L 28.5 -8.289062 L 26.820312 -8.847656 L 19.429688 -8.960938 L 18.367188 -8.792969 L 17.132812 -8.902344 L 15.902344 -8.792969 L 14.726562 -9.464844 L 14.222656 -11.199219 L 14.277344 -13.941406 L 14.78125 -15.117188 L 15.789062 -15.734375 L 17.972656 -15.734375 L 19.09375 -15.847656 L 22.0625 -15.679688 L 23.574219 -15.789062 L 24.75 -15.679688 L 25.757812 -15.734375 L 26.878906 -16.351562 L 27.4375 -17.414062 L 27.550781 -21.839844 L 27.4375 -22.957031 L 26.933594 -24.023438 L 25.980469 -24.636719 L 23.742188 -24.695312 L 22.621094 -24.582031 L 21.445312 -24.582031 L 20.15625 -24.695312 L 15.734375 -24.636719 L 14.78125 -25.253906 L 14.109375 -26.261719 L 14 -27.996094 L 14.558594 -29.621094 L 16.292969 -30.125 L 27.046875 -30.179688 L 28.222656 -30.796875 L 28.835938 -31.804688 L 28.726562 -34.101562 L 28.558594 -35.164062 L 28.613281 -36.398438 L 28.78125 -37.460938 L 28.222656 -38.582031 L 27.046875 -39.085938 L 22.566406 -39.140625 L 21.558594 -39.027344 L 20.4375 -39.195312 L 17.972656 -39.085938 L 16.855469 -39.195312 L 14.671875 -39.140625 L 13.664062 -39.253906 L 6.328125 -39.085938 L 4.703125 -38.691406 L 4.144531 -37.460938 L 4.253906 -35.222656 L 4.03125 -33.597656 L 4.253906 -30.742188 L 4.144531 -29.566406 L 4.253906 -28.558594 L 4.253906 -18.535156 L 4.085938 -17.359375 L 4.253906 -15.175781 L 4.144531 -12.933594 L 4.3125 -11.757812 L 4.199219 -10.527344 L 4.253906 -9.464844 L 4.085938 -8.457031 L 4.199219 -7.167969 L 4.199219 -6.046875 L 4.3125 -3.863281 L 4.253906 -2.742188 Z M 4.03125 -1.625 "/></g></g></g><g fill="#38b6ff" fill-opacity="1"><g transform="translate(204.306657, 182.426268)"><g><path d="M 2.6875 -1.625 L 3.246094 -0.449219 L 4.367188 -0.0546875 L 21 0.0546875 L 22.0625 -0.503906 L 22.679688 -1.511719 L 22.679688 -2.742188 L 22.566406 -3.75 L 22.734375 -7.167969 L 21.949219 -8.121094 L 18.199219 -9.296875 L 17.582031 -10.414062 L 17.695312 -15.007812 L 17.46875 -17.246094 L 17.695312 -19.597656 L 17.582031 -21.277344 L 17.695312 -23.015625 L 17.582031 -24.078125 L 17.695312 -25.199219 L 17.582031 -26.375 L 17.582031 -28.726562 L 18.199219 -29.734375 L 19.261719 -30.347656 L 20.496094 -30.40625 L 21.558594 -31.019531 L 22.175781 -32.085938 L 22.175781 -35.390625 L 22.285156 -36.398438 L 22.175781 -37.515625 L 21.726562 -38.636719 L 19.933594 -39.140625 L 12.824219 -39.195312 L 11.589844 -39.085938 L 8.175781 -39.140625 L 7.113281 -39.085938 L 4.925781 -39.195312 L 3.695312 -38.636719 L 3.078125 -37.460938 L 3.078125 -36.398438 L 2.96875 -35.445312 L 2.96875 -34.214844 L 3.078125 -33.09375 L 3.078125 -32.027344 L 3.640625 -30.964844 L 7.054688 -29.789062 L 7.785156 -28.78125 L 7.617188 -24.023438 L 7.671875 -23.070312 L 7.839844 -21.78125 L 7.785156 -19.484375 L 7.671875 -18.367188 L 7.894531 -16.183594 L 7.617188 -15.0625 L 7.839844 -12.65625 L 7.726562 -10.472656 L 7.167969 -9.238281 L 3.472656 -8.0625 L 2.800781 -7 L 2.6875 -5.933594 Z M 2.6875 -1.625 "/></g></g></g><g fill="#000000" fill-opacity="1"><g transform="translate(229.715812, 182.426268)"><g><path d="M 4.085938 -1.566406 L 4.648438 -0.503906 L 6.382812 0.113281 L 12.542969 0.0546875 L 13.664062 -0.503906 L 14.390625 -2.238281 L 14.335938 -3.976562 L 14.445312 -5.152344 L 14.277344 -7.558594 L 14.335938 -8.625 L 14.277344 -9.6875 L 14.390625 -10.863281 L 14.894531 -12.039062 L 16.574219 -12.597656 L 25.308594 -12.65625 L 26.375 -13.160156 L 26.988281 -14.277344 L 26.933594 -15.511719 L 27.046875 -18.871094 L 26.878906 -19.933594 L 26.316406 -21.109375 L 24.636719 -21.671875 L 16.125 -21.671875 L 14.839844 -22.117188 L 14.222656 -23.125 L 14.222656 -26.429688 L 14.390625 -27.605469 L 14.335938 -28.558594 L 14.894531 -29.675781 L 16.519531 -30.238281 L 18.140625 -30.179688 L 19.765625 -30.292969 L 22.511719 -30.125 L 23.628906 -30.238281 L 25.925781 -30.125 L 27.046875 -30.292969 L 28.109375 -30.796875 L 28.5 -31.917969 L 28.5 -32.980469 L 28.613281 -34.101562 L 28.5 -35.164062 L 28.613281 -36.339844 L 28.5 -37.515625 L 27.941406 -38.582031 L 26.933594 -39.085938 L 25.589844 -39.253906 L 23.574219 -39.085938 L 22.398438 -39.140625 L 21.222656 -39.085938 L 20.15625 -39.195312 L 19.09375 -39.085938 L 5.710938 -39.085938 L 4.648438 -38.523438 L 4.03125 -37.460938 L 4.253906 -30.742188 L 4.144531 -29.675781 L 4.085938 -21.726562 L 4.253906 -20.71875 L 4.144531 -19.652344 L 4.144531 -18.535156 L 4.03125 -17.300781 L 4.253906 -15.566406 L 4.085938 -3.976562 L 4.199219 -2.6875 Z M 4.085938 -1.566406 "/></g></g></g><g fill="#000000" fill-opacity="1"><g transform="translate(260.23155, 182.426268)"><g><path d="M 4.199219 -1.625 L 4.703125 -0.617188 L 6.496094 0.0546875 L 26.316406 -0.0546875 L 27.886719 -0.617188 L 28.5 -1.625 L 28.390625 -2.855469 L 28.445312 -3.976562 L 28.558594 -4.984375 L 28.390625 -6.214844 L 28.558594 -7.28125 L 27.828125 -8.511719 L 26.933594 -9.070312 L 25.703125 -8.902344 L 15.847656 -9.015625 L 14.671875 -9.519531 L 14.335938 -10.75 L 14.390625 -12.824219 L 14.222656 -13.886719 L 14.277344 -15.117188 L 14.167969 -16.238281 L 14.277344 -17.414062 L 14.222656 -20.214844 L 14.390625 -21.78125 L 14.222656 -23.015625 L 14.390625 -24.191406 L 14.222656 -32.925781 L 14.335938 -34.15625 L 14.222656 -36.902344 L 13.664062 -38.582031 L 12.207031 -39.253906 L 6.382812 -39.140625 L 4.757812 -38.523438 L 4.03125 -37.011719 L 4.367188 -34.101562 L 4.253906 -33.035156 L 4.085938 -31.859375 L 4.253906 -30.742188 L 4.367188 -29.675781 L 4.199219 -28.445312 L 4.253906 -27.382812 L 4.144531 -26.261719 L 4.3125 -25.085938 L 4.144531 -24.078125 L 4.253906 -22.957031 L 4.085938 -21.894531 L 4.253906 -19.484375 L 4.085938 -18.421875 L 4.253906 -16.183594 L 4.085938 -15.0625 L 4.144531 -12.824219 L 4.253906 -11.816406 L 4.199219 -4.984375 L 4.3125 -3.863281 L 4.085938 -2.800781 Z M 4.199219 -1.625 "/></g></g></g><g fill="#000000" fill-opacity="1"><g transform="translate(290.355339, 182.426268)"><g><path d="M 2.6875 -1.625 L 3.246094 -0.449219 L 4.367188 -0.0546875 L 21 0.0546875 L 22.0625 -0.503906 L 22.679688 -1.511719 L 22.679688 -2.742188 L 22.566406 -3.75 L 22.734375 -7.167969 L 21.949219 -8.121094 L 18.199219 -9.296875 L 17.582031 -10.414062 L 17.695312 -15.007812 L 17.46875 -17.246094 L 17.695312 -19.597656 L 17.582031 -21.277344 L 17.695312 -23.015625 L 17.582031 -24.078125 L 17.695312 -25.199219 L 17.582031 -26.375 L 17.582031 -28.726562 L 18.199219 -29.734375 L 19.261719 -30.347656 L 20.496094 -30.40625 L 21.558594 -31.019531 L 22.175781 -32.085938 L 22.175781 -35.390625 L 22.285156 -36.398438 L 22.175781 -37.515625 L 21.726562 -38.636719 L 19.933594 -39.140625 L 12.824219 -39.195312 L 11.589844 -39.085938 L 8.175781 -39.140625 L 7.113281 -39.085938 L 4.925781 -39.195312 L 3.695312 -38.636719 L 3.078125 -37.460938 L 3.078125 -36.398438 L 2.96875 -35.445312 L 2.96875 -34.214844 L 3.078125 -33.09375 L 3.078125 -32.027344 L 3.640625 -30.964844 L 7.054688 -29.789062 L 7.785156 -28.78125 L 7.617188 -24.023438 L 7.671875 -23.070312 L 7.839844 -21.78125 L 7.785156 -19.484375 L 7.671875 -18.367188 L 7.894531 -16.183594 L 7.617188 -15.0625 L 7.839844 -12.65625 L 7.726562 -10.472656 L 7.167969 -9.238281 L 3.472656 -8.0625 L 2.800781 -7 L 2.6875 -5.933594 Z M 2.6875 -1.625 "/></g></g></g><g fill="#000000" fill-opacity="1"><g transform="translate(315.775789, 182.426268)"><g><path d="M 0.726562 -1.566406 L 1.0625 -0.335938 L 2.183594 0.113281 L 3.304688 0.0546875 L 4.253906 0.113281 L 5.375 0 L 9.574219 0 L 10.976562 -0.449219 L 12.152344 -1.34375 L 13.382812 -3.246094 L 15.902344 -8.007812 L 18.367188 -11.816406 L 19.09375 -11.925781 L 19.710938 -10.917969 L 20.101562 -9.855469 L 20.886719 -8.902344 L 21.222656 -8.007812 L 25.253906 -1.289062 L 26.375 -0.335938 L 27.605469 0.0546875 L 29.789062 0 L 30.742188 0.113281 L 35.277344 0 L 36.171875 -0.335938 L 36.398438 -1.511719 L 35.894531 -2.910156 L 33.539062 -6.550781 L 32.8125 -7.449219 L 32.308594 -8.34375 L 31.582031 -9.128906 L 31.132812 -10.136719 L 30.460938 -11.085938 L 29.675781 -11.925781 L 29.117188 -12.992188 L 28.558594 -13.832031 L 27.4375 -15.789062 L 26.710938 -16.574219 L 25.589844 -18.476562 L 24.804688 -19.429688 L 24.636719 -20.773438 L 25.085938 -22.117188 L 25.703125 -23.070312 L 26.148438 -24.023438 L 26.820312 -24.972656 L 27.660156 -25.871094 L 35.109375 -37.515625 L 34.71875 -38.636719 L 33.597656 -39.027344 L 31.46875 -39.195312 L 30.292969 -39.085938 L 28.445312 -39.195312 L 27.382812 -39.140625 L 25.367188 -38.691406 L 24.300781 -37.683594 L 22.621094 -35.054688 L 21.894531 -34.15625 L 20.214844 -31.1875 L 19.542969 -30.238281 L 19.039062 -29.339844 L 18.308594 -29.285156 L 17.527344 -30.347656 L 14.839844 -34.996094 L 14.109375 -35.835938 L 13.664062 -36.789062 L 12.992188 -37.742188 L 12.039062 -38.691406 L 10.582031 -39.140625 L 3.640625 -39.195312 L 2.238281 -38.804688 L 2.070312 -37.40625 L 3.472656 -35.222656 L 4.144531 -34.269531 L 4.703125 -33.316406 L 5.488281 -32.53125 L 7.839844 -28.726562 L 8.511719 -27.828125 L 9.742188 -25.8125 L 10.472656 -25.03125 L 11.03125 -24.078125 L 11.480469 -22.957031 L 12.152344 -22.007812 L 12.542969 -20.664062 L 12.261719 -19.316406 L 11.703125 -18.535156 L 10.917969 -17.527344 L 10.472656 -16.574219 L 8.566406 -13.832031 L 8.230469 -12.992188 L 6.777344 -11.03125 L 6.328125 -10.246094 L 5.429688 -9.183594 L 4.984375 -8.230469 L 1.625 -3.304688 Z M 0.726562 -1.566406 "/></g></g></g></svg>